<svg xmlns="http://www.w3.org/2000/svg" width="42" height="42" viewBox="0 0 512 512" fill="currentColor">
	<path id="path1" class="s0" d="m114.3 414c-13.4-5.4-12-12.2 11.3-52.9l19.8-34.8-20.2-0.6c-41.9-1.5-61.4-20-59-56.3 6.3-97.3 138.3-130.8 173.5-44 3 7.2 3 7.2 9.9 2 14.5-11 36.4-15 53-9.7 8.2 2.6 8.2 2.6 6.2-2.2-11.9-28.5 14.8-78.8 41.9-78.8 0.9 0 5-5.9 9.2-13 15.3-26.3 17.9-27.7 52.2-27.7 29 0 31.5 0.9 33.2 11.7 2.3 13.9-3.8 17.5-30.3 18.1-24.2 0.5-36.9 9-21.2 14.2 52.7 17.5 70.5 95.9 25.5 112.7-9.6 3.6-63.4 3.5-73-0.2-5.4-2-5.4-2-3 5.8 1.4 4.4 2.5 9.9 2.5 12.3 0 4.2 1.4 5.4 33.9 28.6 45.6 32.7 43.9 30.6 57.6 71.4 11.4 34 10.1 44.7-5.5 44.7-11.9 0-13-1.6-23.6-34.4-10.5-32.6-8.6-30.2-40.6-52.9-31-22.1-30.5-21.8-32.3-18.3-1.2 2.1 0.5 4.4 11.9 15.7 16.2 16.1 17.1 17.7 29.1 48.2 11.7 30 11.9 34.3 1.5 39.7-12.5 6.5-18.2 0.8-30.2-30-12.7-32.5-32.1-53.9-45.4-50.2-4.4 1.2-12.2 2.2-17.3 2.2-9.4 0-9.4 0-31 37.8-26 45.5-32.2 50.6-44.5 37-6.8-7.7-6-10.2 17-50.6 23.9-41.8 21.8-36.5 16.2-42.2-4.4-4.6-4.4-4.6-31.4 43-32.3 57.2-34.8 59.9-48 53.1-13.1-6.8-7.9-20.7 32.1-86.9 2.5-4.2 2.5-4.2-2.5-3.1-2.8 0.6-6.6 1.5-8.6 1.9-3.1 0.6-6.9 6.5-27.7 43.1-27.5 48.3-29.7 50.7-42.2 45.6zm282-208.6c5.1-5.1 5-15.2-0.2-20.4-9.2-9.1-24.3-2.8-24.3 10.2 0 13.5 15 19.7 24.5 10.2z"/>
</svg>