<svg xmlns="http://www.w3.org/2000/svg" width="42" height="42" fill="currentColor" viewBox="0 0 512 512">
	<path d="m240 480.7c-22.5-2.9-43.2-12.3-64.4-29.1-10-7.9-20.8-15.1-31.3-20.7-35.6-18.9-43.8-44.5-28.2-87.5 4.5-12.5 3-22.7-12.2-79.8-6.8-25.3-5.2-23.7-24.9-24.7-30.9-1.5-65-12.4-71.4-22.7-7.6-12.4 24.7-59 52.8-76.2 15.3-9.3 36.8-15.8 56.3-17.1 13.3-0.8 13.7-1.7 9-17.7-5.9-20.2-7-26.4-7.4-42.3-0.6-24.8 3.5-32.2 17.6-32 11.7 0.1 13.4 1.5 22 17.3 15.9 29.2 26.1 40.9 33.7 38.7 32.5-9.4 84.6-10.5 116.8-2.4 16.5 4.2 18.7 4 25-2.4 6.6-6.9 18.3-25.1 23-36 6.6-15 17-19.6 30-13.2 9.7 4.7 11.2 9.8 9.4 32-1.1 14.5-3.4 26.1-8.1 41.8-4.1 13.7-2.7 16.1 8.9 16.1 29.5 0.1 56.7 12.7 80.7 37.5 27.6 28.5 36.7 50.6 25 60.4-10.1 8.5-42.7 17.1-68.5 18.2-19.6 0.8-18-2.2-31.9 58-9.3 40.2-9.3 38.8-2.7 53.2 14.7 31.9 3.4 61.6-30.4 79.7-9.4 5.1-21 13.4-31 22.1-25.7 22.5-62.3 33.3-97.8 28.8zm-69.7-88.7c18.9-10 11.6-38.5-9.9-38.5-14.5-0.1-24.2 14.2-19.1 27.9 4.3 11.4 18.1 16.5 29 10.6zm191.4 0.3c15.5-7 16.2-28.7 1.2-36.7-13.8-7.4-30.2 2.4-30.2 18.1-0.1 15.2 15.2 24.9 29 18.6zm-174.4-128.6c21.4-8 26-56.5 7.1-75.6-18-18.2-39.7 6-37.2 41.3 1.6 23.5 15.8 39.6 30.1 34.3zm150.7-0.6c21.4-8 26-56.5 7.1-75.6-10.3-10.4-23.6-7.1-31.4 8-15.7 30.1 0.9 76.3 24.3 67.6z"/>
</svg>