<svg xmlns="http://www.w3.org/2000/svg" width="42" height="42" fill="currentColor" viewBox="0 0 16 16">
	<path d="m13.6 5.2c2.9 2.5 2.9 6.5 0 9-1.1 0.9-2.7 0.9-3.8 0q-0.7 0.7-1.8 0.7-1.1 0-1.8-0.7c-1.1 0.9-2.7 0.9-3.8 0-2.9-2.5-2.9-6.5 0-9 0.7-0.6 1.8-0.8 2.7-0.5q-0.3 0.2-0.5 0.5-0.1 0.1-0.2 0.3 1.3-0.9 3.6-0.9 2.3 0 3.6 0.9-0.1-0.2-0.3-0.3-0.2-0.3-0.4-0.5c0.9-0.3 1.9-0.1 2.7 0.5zm-4.7 3.4c-0.1 0.1-0.1 0.3 0.1 0.3h2.2c0.2 0 0.3-0.2 0.2-0.3l-1.1-1.8c-0.1-0.1-0.3-0.1-0.3 0zm-4.3 0c-0.1 0.1 0 0.3 0.1 0.3h2.3c0.1 0 0.2-0.2 0.1-0.3l-1.1-1.8c-0.1-0.1-0.3-0.1-0.3 0zm8.3 1.8c0.1-0.3-0.3-0.7-0.6-0.5-1.3 0.8-2.7 1.2-4.3 1.2v0.4c0 0.2-0.2 0.4-0.4 0.4h-0.5c-0.2 0-0.4-0.2-0.4-0.4v-0.5q-1.6-0.3-3-1.1c-0.3-0.2-0.7 0.2-0.6 0.5 0.2 0.5 0.4 0.8 0.5 1q0.4 0.5 1 0.9c0-0.2 0.2-0.4 0.4-0.4h0.4c0.3 0 0.5 0.2 0.5 0.4v0.6q0.9 0.3 2.1 0.3 1.2 0 2.2-0.3v-0.6c0-0.2 0.1-0.4 0.4-0.4h0.4c0.2 0 0.4 0.2 0.4 0.4q0.6-0.4 1-0.9c0.1-0.2 0.3-0.5 0.5-1z"/>
	<path d="m9.7 4q-0.7-0.3-1.7-0.3-0.6 0-1.2 0.1l1-2.4c0.1-0.2 0.4-0.3 0.6-0.2l1.1 0.5c0.1 0.1 0.2 0.2 0.2 0.4 0 0 0 1.9 0 1.9z"/>
</svg>